<svg xmlns="http://www.w3.org/2000/svg" width="1020" height="1008" viewBox="0 0 1020 1008" role="img" aria-labelledby="title">
  <title>Finta$tech logo</title>
  <path d="M 326.0 840.0 L 329.0 845.0 L 329.0 857.0 L 324.0 866.0 L 315.0 874.0 L 302.0 882.0 L 283.0 886.0 L 273.0 886.0 L 266.0 884.0 L 268.0 873.0 L 273.0 863.0 L 281.0 852.0 L 294.0 841.0 L 308.0 836.0 L 322.0 837.0 Z M 324.0 803.0 L 306.0 803.0 L 296.0 805.0 L 279.0 812.0 L 264.0 822.0 L 254.0 832.0 L 241.0 850.0 L 235.0 862.0 L 228.0 889.0 L 228.0 917.0 L 231.0 933.0 L 236.0 947.0 L 246.0 964.0 L 257.0 976.0 L 270.0 985.0 L 290.0 993.0 L 296.0 993.0 L 301.0 995.0 L 330.0 993.0 L 342.0 989.0 L 355.0 982.0 L 362.0 975.0 L 365.0 968.0 L 364.0 959.0 L 361.0 954.0 L 356.0 950.0 L 344.0 949.0 L 329.0 958.0 L 316.0 962.0 L 297.0 960.0 L 285.0 954.0 L 276.0 945.0 L 267.0 927.0 L 267.0 917.0 L 297.0 917.0 L 310.0 914.0 L 327.0 907.0 L 328.0 905.0 L 336.0 901.0 L 353.0 885.0 L 362.0 869.0 L 363.0 862.0 L 365.0 859.0 L 365.0 842.0 L 359.0 826.0 L 343.0 810.0 Z M 489.0 800.0 L 468.0 804.0 L 455.0 810.0 L 440.0 821.0 L 427.0 836.0 L 417.0 853.0 L 410.0 875.0 L 408.0 886.0 L 408.0 915.0 L 413.0 937.0 L 421.0 955.0 L 428.0 965.0 L 441.0 977.0 L 463.0 988.0 L 483.0 992.0 L 499.0 992.0 L 525.0 987.0 L 545.0 977.0 L 558.0 965.0 L 560.0 960.0 L 560.0 951.0 L 554.0 942.0 L 548.0 939.0 L 540.0 939.0 L 527.0 949.0 L 510.0 957.0 L 480.0 957.0 L 472.0 954.0 L 463.0 948.0 L 451.0 933.0 L 445.0 914.0 L 445.0 884.0 L 447.0 880.0 L 447.0 875.0 L 449.0 873.0 L 454.0 859.0 L 468.0 843.0 L 484.0 835.0 L 496.0 836.0 L 502.0 839.0 L 509.0 846.0 L 516.0 858.0 L 526.0 864.0 L 540.0 863.0 L 549.0 852.0 L 549.0 840.0 L 546.0 832.0 L 535.0 816.0 L 518.0 805.0 L 504.0 801.0 Z M 227.0 718.0 L 157.0 724.0 L 154.0 714.0 L 149.0 709.0 L 144.0 707.0 L 134.0 707.0 L 126.0 712.0 L 123.0 717.0 L 123.0 727.0 L 120.0 730.0 L 55.0 741.0 L 51.0 743.0 L 45.0 751.0 L 44.0 760.0 L 46.0 766.0 L 50.0 771.0 L 56.0 774.0 L 69.0 774.0 L 118.0 765.0 L 122.0 766.0 L 120.0 850.0 L 121.0 942.0 L 123.0 967.0 L 127.0 975.0 L 133.0 979.0 L 149.0 979.0 L 155.0 974.0 L 158.0 968.0 L 155.0 894.0 L 157.0 760.0 L 180.0 756.0 L 226.0 753.0 L 232.0 751.0 L 239.0 744.0 L 240.0 730.0 L 234.0 721.0 Z M 633.0 676.0 L 625.0 682.0 L 622.0 690.0 L 622.0 742.0 L 614.0 948.0 L 615.0 980.0 L 619.0 996.0 L 627.0 1002.0 L 636.0 1003.0 L 644.0 1000.0 L 650.0 994.0 L 652.0 988.0 L 650.0 940.0 L 653.0 928.0 L 663.0 908.0 L 676.0 888.0 L 695.0 868.0 L 710.0 860.0 L 718.0 860.0 L 722.0 862.0 L 733.0 875.0 L 740.0 896.0 L 745.0 926.0 L 752.0 954.0 L 758.0 968.0 L 764.0 977.0 L 775.0 987.0 L 788.0 992.0 L 797.0 993.0 L 815.0 988.0 L 824.0 980.0 L 827.0 975.0 L 827.0 963.0 L 820.0 955.0 L 815.0 953.0 L 807.0 953.0 L 799.0 959.0 L 795.0 958.0 L 791.0 954.0 L 785.0 941.0 L 776.0 894.0 L 767.0 864.0 L 758.0 847.0 L 744.0 833.0 L 734.0 828.0 L 720.0 825.0 L 710.0 825.0 L 698.0 828.0 L 688.0 832.0 L 677.0 839.0 L 658.0 857.0 L 654.0 863.0 L 652.0 862.0 L 657.0 741.0 L 657.0 690.0 L 655.0 684.0 L 649.0 678.0 L 645.0 676.0 Z M 317.0 541.0 L 320.0 544.0 L 317.0 560.0 L 310.0 579.0 L 308.0 581.0 L 308.0 584.0 L 297.0 604.0 L 286.0 617.0 L 275.0 626.0 L 265.0 629.0 L 258.0 629.0 L 253.0 627.0 L 245.0 618.0 L 245.0 615.0 L 243.0 613.0 L 242.0 592.0 L 246.0 576.0 L 256.0 557.0 L 270.0 543.0 L 286.0 535.0 L 304.0 535.0 Z M 357.0 482.0 L 345.0 481.0 L 337.0 486.0 L 333.0 496.0 L 333.0 507.0 L 331.0 514.0 L 324.0 510.0 L 307.0 505.0 L 289.0 504.0 L 275.0 506.0 L 266.0 509.0 L 249.0 518.0 L 229.0 538.0 L 219.0 555.0 L 213.0 571.0 L 209.0 593.0 L 210.0 614.0 L 212.0 617.0 L 215.0 630.0 L 222.0 641.0 L 230.0 649.0 L 241.0 656.0 L 256.0 660.0 L 270.0 660.0 L 287.0 655.0 L 305.0 642.0 L 317.0 629.0 L 332.0 605.0 L 333.0 600.0 L 336.0 599.0 L 342.0 636.0 L 344.0 638.0 L 345.0 645.0 L 352.0 657.0 L 358.0 662.0 L 367.0 665.0 L 376.0 664.0 L 384.0 656.0 L 385.0 649.0 L 383.0 642.0 L 376.0 634.0 L 374.0 629.0 L 369.0 598.0 L 366.0 492.0 L 364.0 488.0 Z M 118.0 394.0 L 112.0 396.0 L 105.0 404.0 L 102.0 431.0 L 101.0 468.0 L 99.0 486.0 L 89.0 489.0 L 47.0 493.0 L 41.0 497.0 L 38.0 507.0 L 41.0 516.0 L 50.0 522.0 L 70.0 522.0 L 95.0 518.0 L 98.0 520.0 L 95.0 578.0 L 95.0 619.0 L 96.0 633.0 L 98.0 636.0 L 99.0 646.0 L 105.0 660.0 L 117.0 673.0 L 128.0 678.0 L 143.0 680.0 L 159.0 676.0 L 170.0 669.0 L 178.0 661.0 L 181.0 651.0 L 179.0 643.0 L 169.0 636.0 L 161.0 637.0 L 154.0 644.0 L 145.0 649.0 L 137.0 648.0 L 132.0 642.0 L 128.0 620.0 L 128.0 569.0 L 131.0 514.0 L 134.0 512.0 L 168.0 506.0 L 172.0 504.0 L 174.0 505.0 L 176.0 503.0 L 186.0 501.0 L 193.0 494.0 L 194.0 485.0 L 192.0 479.0 L 183.0 472.0 L 176.0 472.0 L 166.0 474.0 L 163.0 476.0 L 150.0 477.0 L 140.0 480.0 L 132.0 479.0 L 132.0 459.0 L 136.0 407.0 L 134.0 402.0 L 128.0 396.0 Z M 290.0 188.0 L 279.0 192.0 L 275.0 196.0 L 273.0 203.0 L 273.0 306.0 L 277.0 333.0 L 284.0 349.0 L 292.0 357.0 L 299.0 359.0 L 308.0 359.0 L 313.0 357.0 L 320.0 349.0 L 321.0 342.0 L 317.0 332.0 L 313.0 327.0 L 309.0 308.0 L 307.0 272.0 L 309.0 206.0 L 308.0 200.0 L 303.0 193.0 L 296.0 189.0 Z M 380.0 186.0 L 377.0 191.0 L 375.0 217.0 L 373.0 359.0 L 375.0 365.0 L 381.0 372.0 L 385.0 374.0 L 394.0 375.0 L 403.0 372.0 L 407.0 367.0 L 410.0 358.0 L 410.0 297.0 L 412.0 295.0 L 418.0 278.0 L 434.0 249.0 L 452.0 226.0 L 463.0 217.0 L 474.0 213.0 L 486.0 216.0 L 492.0 223.0 L 496.0 232.0 L 497.0 241.0 L 499.0 244.0 L 501.0 271.0 L 500.0 273.0 L 502.0 282.0 L 503.0 301.0 L 509.0 324.0 L 515.0 335.0 L 527.0 346.0 L 538.0 351.0 L 544.0 352.0 L 560.0 350.0 L 568.0 345.0 L 575.0 338.0 L 577.0 334.0 L 577.0 324.0 L 573.0 317.0 L 566.0 313.0 L 556.0 313.0 L 548.0 318.0 L 542.0 312.0 L 539.0 302.0 L 538.0 285.0 L 536.0 277.0 L 536.0 259.0 L 530.0 222.0 L 519.0 200.0 L 507.0 188.0 L 498.0 183.0 L 487.0 180.0 L 467.0 180.0 L 456.0 183.0 L 447.0 187.0 L 433.0 197.0 L 420.0 211.0 L 415.0 219.0 L 411.0 222.0 L 410.0 210.0 L 412.0 194.0 L 410.0 188.0 L 400.0 180.0 L 390.0 180.0 Z M 289.0 94.0 L 283.0 95.0 L 273.0 102.0 L 269.0 108.0 L 267.0 119.0 L 270.0 130.0 L 277.0 138.0 L 288.0 143.0 L 293.0 143.0 L 305.0 139.0 L 311.0 133.0 L 315.0 123.0 L 315.0 115.0 L 312.0 107.0 L 307.0 101.0 L 296.0 95.0 Z M 224.0 59.0 L 195.0 60.0 L 189.0 62.0 L 169.0 63.0 L 164.0 65.0 L 123.0 70.0 L 119.0 72.0 L 104.0 73.0 L 78.0 79.0 L 69.0 88.0 L 69.0 103.0 L 78.0 112.0 L 76.0 151.0 L 76.0 191.0 L 74.0 208.0 L 74.0 288.0 L 76.0 302.0 L 77.0 334.0 L 80.0 350.0 L 80.0 359.0 L 84.0 369.0 L 94.0 377.0 L 105.0 377.0 L 111.0 374.0 L 115.0 369.0 L 118.0 361.0 L 113.0 331.0 L 112.0 311.0 L 110.0 304.0 L 109.0 242.0 L 111.0 240.0 L 145.0 237.0 L 150.0 235.0 L 159.0 235.0 L 191.0 230.0 L 198.0 227.0 L 205.0 218.0 L 205.0 207.0 L 203.0 202.0 L 196.0 196.0 L 192.0 195.0 L 122.0 205.0 L 110.0 204.0 L 113.0 108.0 L 116.0 106.0 L 158.0 99.0 L 223.0 92.0 L 231.0 86.0 L 234.0 80.0 L 233.0 68.0 L 228.0 61.0 Z" fill="#000000" fill-rule="evenodd"/>
  <path d="M 510.0 570.0 L 519.0 579.0 L 525.0 590.0 L 525.0 600.0 L 523.0 607.0 L 519.0 613.0 L 510.0 621.0 L 506.0 620.0 L 507.0 571.0 Z M 480.0 465.0 L 484.0 466.0 L 483.0 510.0 L 482.0 511.0 L 479.0 511.0 L 474.0 506.0 L 468.0 494.0 L 469.0 479.0 L 473.0 472.0 Z M 490.0 395.0 L 482.0 401.0 L 480.0 406.0 L 481.0 430.0 L 465.0 438.0 L 448.0 452.0 L 438.0 469.0 L 435.0 481.0 L 436.0 503.0 L 442.0 518.0 L 457.0 536.0 L 481.0 553.0 L 480.0 620.0 L 476.0 621.0 L 466.0 615.0 L 457.0 606.0 L 448.0 594.0 L 440.0 591.0 L 431.0 593.0 L 426.0 597.0 L 423.0 603.0 L 423.0 613.0 L 429.0 624.0 L 440.0 636.0 L 454.0 646.0 L 466.0 652.0 L 478.0 655.0 L 480.0 657.0 L 481.0 675.0 L 484.0 686.0 L 487.0 689.0 L 492.0 691.0 L 500.0 691.0 L 504.0 689.0 L 509.0 683.0 L 508.0 656.0 L 512.0 653.0 L 517.0 652.0 L 527.0 647.0 L 541.0 636.0 L 550.0 624.0 L 554.0 616.0 L 557.0 604.0 L 557.0 584.0 L 553.0 570.0 L 549.0 563.0 L 537.0 549.0 L 527.0 541.0 L 509.0 530.0 L 510.0 462.0 L 514.0 461.0 L 523.0 467.0 L 536.0 483.0 L 544.0 488.0 L 554.0 488.0 L 561.0 483.0 L 564.0 477.0 L 564.0 467.0 L 554.0 451.0 L 540.0 439.0 L 524.0 431.0 L 511.0 429.0 L 508.0 426.0 L 507.0 404.0 L 505.0 400.0 L 500.0 396.0 Z" fill="#764C9E" fill-rule="evenodd"/>
</svg>
